name C:\Users\u0101727\Documents\MyRepositories\upper-imu-dc\Results\main_mocap_tracking\Case_6\kinematics.mot
datacolumns 15
datarows 18
range 2.00000000 2.17000000
endheader 
time	ground_thorax_rot_x	ground_thorax_rot_y	ground_thorax_rot_z	clav_prot	clav_elev	scapula_abduction	scapula_elevation	scapula_upward_rot	scapula_winging	plane_elv	shoulder_elv	axial_rot	elbow_flexion	pro_sup	
          2.00000000	         -0.45768770	        -10.06779422	        -12.28423263	        -25.03685457	          4.21493716	         10.85358661	         -4.65063182	         53.62784880	         -5.14197844	         60.73513958	         72.05224446	        -24.68100081	          0.03247766	         34.31284744	
          2.01000000	         -0.48196952	        -10.09764110	        -12.31374521	        -25.22252373	          4.33791119	         10.82914622	         -4.59639099	         54.02854246	         -5.21745216	         60.47189142	         72.34559951	        -24.55257134	          0.03352627	         34.31274635	
          2.02000000	         -0.50633031	        -10.12606718	        -12.34246520	        -25.40339388	          4.45629692	         10.80836643	         -4.54388176	         54.42175834	         -5.29046361	         60.20398720	         72.63843482	        -24.42881293	          0.03435142	         34.31266873	
          2.03000000	         -0.53082212	        -10.15322031	        -12.37042131	        -25.57851169	          4.56782324	         10.79129377	         -4.49455519	         54.80490747	         -5.36013650	         59.93274256	         72.93347602	        -24.31334266	          0.03447385	         34.31265875	
          2.04000000	         -0.55548325	        -10.17912337	        -12.39763791	        -25.74767002	          4.67003511	         10.77664355	         -4.45005316	         55.17534985	         -5.42562737	         59.66119130	         73.23330414	        -24.20014548	          0.03369974	         34.31273205	
          2.05000000	         -0.58032266	        -10.20371332	        -12.42412084	        -25.91142929	          4.76095437	         10.76224458	         -4.41177990	         55.53115872	         -5.48637288	         59.39343701	         73.53963095	        -24.07532962	          0.03225279	         34.31286132	
          2.06000000	         -0.60532006	        -10.22691535	        -12.44984991	        -26.07076972	          4.83926391	         10.74605204	         -4.38076499	         55.87163908	         -5.54213709	         59.13340876	         73.85280703	        -23.92122359	          0.03071642	         34.31298207	
          2.07000000	         -0.63043105	        -10.24871096	        -12.47477809	        -26.22664558	          4.90415328	         10.72712054	         -4.35773739	         56.19749217	         -5.59291690	         58.88363058	         74.17174272	        -23.72229282	          0.02981861	         34.31302056	
          2.08000000	         -0.65558402	        -10.26916800	        -12.49883326	        -26.37977418	          4.95523599	         10.70594449	         -4.34315439	         56.51074600	         -5.63886734	         58.64467107	         74.49414610	        -23.47030797	          0.03015671	         34.31292369	
          2.09000000	         -0.68066951	        -10.28843302	        -12.52192116	        -26.53069911	          4.99265286	         10.68417155	         -4.33711636	         56.81457625	         -5.68030168	         58.41534762	         74.81688147	        -23.16660609	          0.03196041	         34.31267814	
          2.10000000	         -0.70553129	        -10.30669862	        -12.54393180	        -26.67996586	          5.01716573	         10.66394355	         -4.33929181	         57.11292202	         -5.71770133	         58.19339977	         75.13646427	        -22.82146022	          0.03501589	         34.31231562	
          2.11000000	         -0.72996921	        -10.32416206	        -12.56475151	        -26.82821603	          5.03001794	         10.64717523	         -4.34899497	         57.40978989	         -5.75165271	         57.97630639	         75.44974916	        -22.45130632	          0.03878863	         34.31189914	
          2.12000000	         -0.75375340	        -10.34099044	        -12.58427695	        -26.97614550	          5.03262118	         10.63506823	         -4.36538065	         57.70850082	         -5.78273167	         57.76194643	         75.75457974	        -22.07501022	          0.04260051	         34.31150029	
          2.13000000	         -0.77663758	        -10.35730230	        -12.60242169	        -27.12444437	          5.02647643	         10.62795252	         -4.38749256	         58.01135338	         -5.81147510	         57.54884593	         76.05001800	        -21.71122978	          0.04579048	         34.31118126	
          2.14000000	         -0.79836471	        -10.37316432	        -12.61911270	        -27.27377498	          5.01349882	         10.62533714	         -4.41404676	         58.31972853	         -5.83848889	         57.33607196	         76.33618737	        -21.37745761	          0.04780413	         34.31099179	
          2.15000000	         -0.81867114	        -10.38859002	        -12.63428469	        -27.42473818	          4.99644606	         10.62589550	         -4.44313971	         58.63411829	         -5.86458222	         57.12323769	         76.61421241	        -21.08883047	          0.04816217	         34.31097628	
          2.16000000	         -0.83729512	        -10.40353096	        -12.64787882	        -27.57788797	          4.97904199	         10.62739130	         -4.47217099	         58.95409747	         -5.89082477	         56.91066155	         76.88615964	        -20.85621236	          0.04641186	         34.31117703	
          2.17000000	         -0.85399136	        -10.41787013	        -12.65984649	        -27.73383496	          4.96556645	         10.62694152	         -4.49815264	         59.27873349	         -5.91847822	         56.69914553	         77.15444378	        -20.68528119	          0.04221925	         34.31162559	
